solid omniscopeIII
facet normal -0.0 -7.657137397853899e-16 1.0
  outer loop
    vertex 148.46617790827065 29.679483342504916 6.499999999999951
    vertex 154.87707193800625 32.72252687946865 6.499999999999953
    vertex 146.70927590304888 33.38081473631893 6.499999999999954
  endloop
endfacet
facet normal -0.0 -7.657137397853899e-16 1.0
  outer loop
    vertex 154.87707193800625 32.72252687946865 6.499999999999953
    vertex 148.46617790827065 29.679483342504916 6.499999999999951
    vertex 150.22307991349243 25.97815194869089 6.4999999999999485
  endloop
endfacet
facet normal 0.8230588185745701 -0.5679561437000511 -4.3489182282665445e-16
  outer loop
    vertex 154.87707193800625 32.72252687946866 4.9999999999999565
    vertex 150.22307991349243 25.97815194869089 6.4999999999999485
    vertex 150.22307991349243 25.97815194869089 4.999999999999951
  endloop
endfacet
facet normal 0.8230588185745701 -0.5679561437000511 -4.3489182282665445e-16
  outer loop
    vertex 150.22307991349243 25.97815194869089 6.4999999999999485
    vertex 154.87707193800625 32.72252687946866 4.9999999999999565
    vertex 154.87707193800625 32.72252687946865 6.499999999999953
  endloop
endfacet
facet normal -0.9033938579669744 -0.4288117738443595 -3.2834706701437135e-16
  outer loop
    vertex 148.46617790827065 29.679483342504916 6.499999999999951
    vertex 150.22307991349243 25.97815194869089 4.999999999999951
    vertex 150.22307991349243 25.97815194869089 6.4999999999999485
  endloop
endfacet
facet normal -0.9033938579669744 -0.4288117738443595 -3.2834706701437135e-16
  outer loop
    vertex 150.22307991349243 25.97815194869089 4.999999999999951
    vertex 148.46617790827065 29.679483342504916 6.499999999999951
    vertex 146.70927590304888 33.38081473631893 4.999999999999957
  endloop
endfacet
facet normal -0.9033938579669744 -0.4288117738443595 -3.2834706701437135e-16
  outer loop
    vertex 146.70927590304888 33.38081473631893 4.999999999999957
    vertex 148.46617790827065 29.679483342504916 6.499999999999951
    vertex 146.70927590304888 33.38081473631893 6.499999999999954
  endloop
endfacet
facet normal 0.08033503939240429 0.9967679175444106 7.632388898410258e-16
  outer loop
    vertex 146.70927590304888 33.38081473631893 4.999999999999957
    vertex 154.87707193800625 32.72252687946865 6.499999999999953
    vertex 154.87707193800625 32.72252687946866 4.9999999999999565
  endloop
endfacet
facet normal 0.08033503939240429 0.9967679175444106 7.632388898410258e-16
  outer loop
    vertex 154.87707193800625 32.72252687946865 6.499999999999953
    vertex 146.70927590304888 33.38081473631893 4.999999999999957
    vertex 146.70927590304888 33.38081473631893 6.499999999999954
  endloop
endfacet
facet normal 0.0 -7.657137397853899e-16 1.0
  outer loop
    vertex 147.4017073383811 20.253318247399704 4.999999999999947
    vertex 143.16211077298644 38.68661191075701 4.999999999999961
    vertex 139.9606755263884 28.24609896993534 4.999999999999953
  endloop
endfacet
facet normal 0.0 -7.657137397853899e-16 1.0
  outer loop
    vertex 143.16211077298644 38.68661191075701 4.999999999999961
    vertex 147.4017073383811 20.253318247399704 4.999999999999947
    vertex 146.70927590304888 33.38081473631893 4.999999999999957
  endloop
endfacet
facet normal 0.0 -7.657137397853899e-16 1.0
  outer loop
    vertex 146.70927590304888 33.38081473631893 4.999999999999957
    vertex 147.4017073383811 20.253318247399704 4.999999999999947
    vertex 150.22307991349243 25.97815194869089 4.999999999999951
  endloop
endfacet
facet normal 0.0 -7.657137397853899e-16 1.0
  outer loop
    vertex 150.22307991349243 25.97815194869089 4.999999999999951
    vertex 147.4017073383811 20.253318247399704 4.999999999999947
    vertex 158.0441743969719 22.70105046568573 4.9999999999999485
  endloop
endfacet
facet normal 0.0 -7.657137397853899e-16 1.0
  outer loop
    vertex 150.22307991349243 25.97815194869089 4.999999999999951
    vertex 158.0441743969719 22.70105046568573 4.9999999999999485
    vertex 154.87707193800625 32.72252687946866 4.9999999999999565
  endloop
endfacet
facet normal 0.0 -7.657137397853899e-16 1.0
  outer loop
    vertex 146.70927590304888 33.38081473631893 4.999999999999957
    vertex 153.8045778315772 41.134344129043036 4.999999999999963
    vertex 143.16211077298644 38.68661191075701 4.999999999999961
  endloop
endfacet
facet normal 0.0 -7.657137397853899e-16 1.0
  outer loop
    vertex 153.8045778315772 41.134344129043036 4.999999999999963
    vertex 146.70927590304888 33.38081473631893 4.999999999999957
    vertex 154.87707193800625 32.72252687946866 4.9999999999999565
  endloop
endfacet
facet normal 0.0 -7.657137397853899e-16 1.0
  outer loop
    vertex 153.8045778315772 41.134344129043036 4.999999999999963
    vertex 154.87707193800625 32.72252687946866 4.9999999999999565
    vertex 161.24560964356994 33.1415634065074 4.9999999999999565
  endloop
endfacet
facet normal 0.0 -7.657137397853899e-16 1.0
  outer loop
    vertex 161.24560964356994 33.1415634065074 4.9999999999999565
    vertex 154.87707193800625 32.72252687946866 4.9999999999999565
    vertex 158.0441743969719 22.70105046568573 4.9999999999999485
  endloop
endfacet
facet normal -0.9560624744063634 0.2931630007896325 2.2447893770133667e-16
  outer loop
    vertex 143.16211077298644 38.68661191075701 4.999999999999961
    vertex 139.9606755263884 28.246098969935346 -4.934941344458821e-14
    vertex 139.9606755263884 28.24609896993534 4.999999999999953
  endloop
endfacet
facet normal -0.9560624744063634 0.2931630007896325 2.2447893770133667e-16
  outer loop
    vertex 139.9606755263884 28.246098969935346 -4.934941344458821e-14
    vertex 143.16211077298644 38.68661191075701 4.999999999999961
    vertex 143.16211077298644 38.686611910757016 -4.088951399694451e-14
  endloop
endfacet
facet normal 0.9560624744063632 -0.2931630007896327 -2.2447893770133687e-16
  outer loop
    vertex 158.0441743969719 22.701050465685736 -5.357936316841005e-14
    vertex 161.24560964356994 33.1415634065074 4.9999999999999565
    vertex 158.0441743969719 22.70105046568573 4.9999999999999485
  endloop
endfacet
facet normal 0.9560624744063632 -0.2931630007896327 -2.2447893770133687e-16
  outer loop
    vertex 161.24560964356994 33.1415634065074 4.9999999999999565
    vertex 158.0441743969719 22.701050465685736 -5.357936316841005e-14
    vertex 161.24560964356994 33.14156340650741 -4.511946372076636e-14
  endloop
endfacet
facet normal 0.0 7.657137397853899e-16 -1.0
  outer loop
    vertex 143.16211077298644 38.686611910757016 -4.088951399694451e-14
    vertex 147.4017073383811 20.25331824739971 -5.4989346409684e-14
    vertex 139.9606755263884 28.246098969935346 -4.934941344458821e-14
  endloop
endfacet
facet normal 0.0 7.657137397853899e-16 -1.0
  outer loop
    vertex 147.4017073383811 20.25331824739971 -5.4989346409684e-14
    vertex 143.16211077298644 38.686611910757016 -4.088951399694451e-14
    vertex 153.8045778315772 41.13434412904304 -3.947953075567056e-14
  endloop
endfacet
facet normal 0.0 7.657137397853899e-16 -1.0
  outer loop
    vertex 147.4017073383811 20.25331824739971 -5.4989346409684e-14
    vertex 153.8045778315772 41.13434412904304 -3.947953075567056e-14
    vertex 158.0441743969719 22.701050465685736 -5.357936316841005e-14
  endloop
endfacet
facet normal 0.0 7.657137397853899e-16 -1.0
  outer loop
    vertex 158.0441743969719 22.701050465685736 -5.357936316841005e-14
    vertex 153.8045778315772 41.13434412904304 -3.947953075567056e-14
    vertex 161.24560964356994 33.14156340650741 -4.511946372076636e-14
  endloop
endfacet
facet normal -0.2241446310696825 0.9745558908357365 7.46230835801714e-16
  outer loop
    vertex 143.16211077298644 38.68661191075701 4.999999999999961
    vertex 153.8045778315772 41.13434412904304 -3.947953075567056e-14
    vertex 143.16211077298644 38.686611910757016 -4.088951399694451e-14
  endloop
endfacet
facet normal -0.2241446310696825 0.9745558908357365 7.46230835801714e-16
  outer loop
    vertex 153.8045778315772 41.13434412904304 -3.947953075567056e-14
    vertex 143.16211077298644 38.68661191075701 4.999999999999961
    vertex 153.8045778315772 41.134344129043036 4.999999999999963
  endloop
endfacet
facet normal -0.731917843336681 -0.6813928900461039 -5.217518981003772e-16
  outer loop
    vertex 139.9606755263884 28.24609896993534 4.999999999999953
    vertex 147.4017073383811 20.25331824739971 -5.4989346409684e-14
    vertex 147.4017073383811 20.253318247399704 4.999999999999947
  endloop
endfacet
facet normal -0.731917843336681 -0.6813928900461039 -5.217518981003772e-16
  outer loop
    vertex 147.4017073383811 20.25331824739971 -5.4989346409684e-14
    vertex 139.9606755263884 28.24609896993534 4.999999999999953
    vertex 139.9606755263884 28.246098969935346 -4.934941344458821e-14
  endloop
endfacet
facet normal 0.7319178433366808 0.6813928900461041 5.217518981003774e-16
  outer loop
    vertex 161.24560964356994 33.14156340650741 -4.511946372076636e-14
    vertex 153.8045778315772 41.134344129043036 4.999999999999963
    vertex 161.24560964356994 33.1415634065074 4.9999999999999565
  endloop
endfacet
facet normal 0.7319178433366808 0.6813928900461041 5.217518981003774e-16
  outer loop
    vertex 153.8045778315772 41.134344129043036 4.999999999999963
    vertex 161.24560964356994 33.14156340650741 -4.511946372076636e-14
    vertex 153.8045778315772 41.13434412904304 -3.947953075567056e-14
  endloop
endfacet
facet normal 0.2241446310696821 -0.9745558908357366 -7.462308358017141e-16
  outer loop
    vertex 158.0441743969719 22.701050465685736 -5.357936316841005e-14
    vertex 147.4017073383811 20.253318247399704 4.999999999999947
    vertex 147.4017073383811 20.25331824739971 -5.4989346409684e-14
  endloop
endfacet
facet normal 0.2241446310696821 -0.9745558908357366 -7.462308358017141e-16
  outer loop
    vertex 147.4017073383811 20.253318247399704 4.999999999999947
    vertex 158.0441743969719 22.701050465685736 -5.357936316841005e-14
    vertex 158.0441743969719 22.70105046568573 4.9999999999999485
  endloop
endfacet
endsolid omniscopeIII
